# xmcd
#
# Track frame offsets: 
#        150
#        25627
#        44779
#        70753
#        97665
#        116837
#        134493
#        154538
#        175633
#
# Disc length: 2606 seconds
#
# Revision: 0
# Processed by: cddbd v1.5.2PL0 Copyright (c) Steve Scherf et al.
# Submitted via: ExactAudioCopy v1.3
#
DISCID=6d0a2c09
DTITLE=Satin Whale - As A Keepsake
DYEAR=1977
DGENRE=Blues
TTITLE0=Holidays (By The Seaside)
TTITLE1=Reminiscent River
TTITLE2=Devilish Roundabout
TTITLE3=A Bit Foolish - A Bit Wise
TTITLE4=Shady Way
TTITLE5=Goin' Back To Cologne
TTITLE6=Kew Gardens
TTITLE7=Maree
TTITLE8=No Time To Lose
EXTD=
EXTT0=
EXTT1=
EXTT2=
EXTT3=
EXTT4=
EXTT5=
EXTT6=
EXTT7=
EXTT8=
PLAYORDER=
